<svg xmlns="http://www.w3.org/2000/svg" style="display:none">
    <symbol id="icon-menu" viewBox="0 0 24 24">
        <path fill="white" d="M22 18.005C22 18.555 21.554 19 21.005 19H12.995C12.7311 19 12.478 18.8952 12.2914 18.7086C12.1048 18.522 12 18.2689 12 18.005C12 17.7411 12.1048 17.488 12.2914 17.3014C12.478 17.1148 12.7311 17.01 12.995 17.01H21.005C21.555 17.01 22 17.455 22 18.005ZM22 12C22 12.55 21.554 12.995 21.005 12.995H2.995C2.73111 12.995 2.47803 12.8902 2.29143 12.7036C2.10483 12.517 2 12.2639 2 12C2 11.7361 2.10483 11.483 2.29143 11.2964C2.47803 11.1098 2.73111 11.005 2.995 11.005H21.005C21.555 11.005 22 11.451 22 12ZM21.005 6.99C21.2689 6.99 21.522 6.88517 21.7086 6.69857C21.8952 6.51197 22 6.25889 22 5.995C22 5.73111 21.8952 5.47803 21.7086 5.29143C21.522 5.10483 21.2689 5 21.005 5H8.995C8.86433 5 8.73495 5.02574 8.61423 5.07574C8.49351 5.12574 8.38382 5.19903 8.29143 5.29143C8.19903 5.38382 8.12574 5.49351 8.07574 5.61423C8.02574 5.73495 8 5.86433 8 5.995C8 6.12567 8.02574 6.25505 8.07574 6.37577C8.12574 6.49649 8.19903 6.60618 8.29143 6.69857C8.38382 6.79097 8.49351 6.86426 8.61423 6.91426C8.73495 6.96426 8.86433 6.99 8.995 6.99H21.005Z"/>
    </symbol>
    <symbol id="icon-xmark" viewBox="0 0 640 640">
        <!--!Font Awesome Free 7.2.0 by @fontawesome - https://fontawesome.com License - https://fontawesome.com/license/free Copyright 2026 Fonticons, Inc.--><path d="M183.1 137.4C170.6 124.9 150.3 124.9 137.8 137.4C125.3 149.9 125.3 170.2 137.8 182.7L275.2 320L137.9 457.4C125.4 469.9 125.4 490.2 137.9 502.7C150.4 515.2 170.7 515.2 183.2 502.7L320.5 365.3L457.9 502.6C470.4 515.1 490.7 515.1 503.2 502.6C515.7 490.1 515.7 469.8 503.2 457.3L365.8 320L503.1 182.6C515.6 170.1 515.6 149.8 503.1 137.3C490.6 124.8 470.3 124.8 457.8 137.3L320.5 274.7L183.1 137.4z"/>
    </symbol>
    <symbol id="icon-facebook" viewBox="0 0 640 640">
        <!--!Font Awesome Free 7.2.0 by @fontawesome - https://fontawesome.com License - https://fontawesome.com/license/free Copyright 2026 Fonticons, Inc.--><path d="M576 320C576 178.6 461.4 64 320 64C178.6 64 64 178.6 64 320C64 440 146.7 540.8 258.2 568.5L258.2 398.2L205.4 398.2L205.4 320L258.2 320L258.2 286.3C258.2 199.2 297.6 158.8 383.2 158.8C399.4 158.8 427.4 162 438.9 165.2L438.9 236C432.9 235.4 422.4 235 409.3 235C367.3 235 351.1 250.9 351.1 292.2L351.1 320L434.7 320L420.3 398.2L351 398.2L351 574.1C477.8 558.8 576 450.9 576 320z"/>
    </symbol>
    <symbol id="icon-instagram" viewBox="0 0 640 640">
        <!--!Font Awesome Free 7.2.0 by @fontawesome - https://fontawesome.com License - https://fontawesome.com/license/free Copyright 2026 Fonticons, Inc.--><path d="M320.3 205C256.8 204.8 205.2 256.2 205 319.7C204.8 383.2 256.2 434.8 319.7 435C383.2 435.2 434.8 383.8 435 320.3C435.2 256.8 383.8 205.2 320.3 205zM319.7 245.4C360.9 245.2 394.4 278.5 394.6 319.7C394.8 360.9 361.5 394.4 320.3 394.6C279.1 394.8 245.6 361.5 245.4 320.3C245.2 279.1 278.5 245.6 319.7 245.4zM413.1 200.3C413.1 185.5 425.1 173.5 439.9 173.5C454.7 173.5 466.7 185.5 466.7 200.3C466.7 215.1 454.7 227.1 439.9 227.1C425.1 227.1 413.1 215.1 413.1 200.3zM542.8 227.5C541.1 191.6 532.9 159.8 506.6 133.6C480.4 107.4 448.6 99.2 412.7 97.4C375.7 95.3 264.8 95.3 227.8 97.4C192 99.1 160.2 107.3 133.9 133.5C107.6 159.7 99.5 191.5 97.7 227.4C95.6 264.4 95.6 375.3 97.7 412.3C99.4 448.2 107.6 480 133.9 506.2C160.2 532.4 191.9 540.6 227.8 542.4C264.8 544.5 375.7 544.5 412.7 542.4C448.6 540.7 480.4 532.5 506.6 506.2C532.8 480 541 448.2 542.8 412.3C544.9 375.3 544.9 264.5 542.8 227.5zM495 452C487.2 471.6 472.1 486.7 452.4 494.6C422.9 506.3 352.9 503.6 320.3 503.6C287.7 503.6 217.6 506.2 188.2 494.6C168.6 486.8 153.5 471.7 145.6 452C133.9 422.5 136.6 352.5 136.6 319.9C136.6 287.3 134 217.2 145.6 187.8C153.4 168.2 168.5 153.1 188.2 145.2C217.7 133.5 287.7 136.2 320.3 136.2C352.9 136.2 423 133.6 452.4 145.2C472 153 487.1 168.1 495 187.8C506.7 217.3 504 287.3 504 319.9C504 352.5 506.7 422.6 495 452z"/>
    </symbol>
    <symbol id="icon-phone" viewBox="0 0 640 640">
        <!--!Font Awesome Free 7.2.0 by @fontawesome - https://fontawesome.com License - https://fontawesome.com/license/free Copyright 2026 Fonticons, Inc.--><path d="M160 96C124.7 96 96 124.7 96 160L96 480C96 515.3 124.7 544 160 544L480 544C515.3 544 544 515.3 544 480L544 160C544 124.7 515.3 96 480 96L160 96zM248 192.7C257.8 190 268.1 195.1 272 204.5L292.3 253.2C295.7 261.5 293.4 271 286.4 276.7L264.3 294.7C280.5 330.5 308.8 359.7 343.9 377.1L363.2 353.5C368.9 346.6 378.4 344.2 386.7 347.6L435.4 367.9C444.8 371.8 449.8 382.1 447.2 391.9L446.4 394.7C437.6 427 406.3 454.6 368.2 446.5C280.7 428 211.9 359.1 193.3 271.6C185.2 233.5 212.8 202.2 245.1 193.4L247.9 192.6z"/>
    </symbol>
    <symbol id="icon-science" viewBox="0 0 48 48">
        <path fill="#2B7FFF" d="M24.092 2.1c-1.575 0-3.046.717-4.3 1.891-1.254 1.175-2.327 2.81-3.222 4.792-.187.415-.366.847-.537 1.292a24.773 24.773 0 0 0-1.39-.18 20.9 20.9 0 0 0-1.582-.1c-1.54-.037-2.947.12-4.18.493-1.644.499-3 1.414-3.788 2.778-.787 1.364-.902 2.997-.511 4.67.39 1.673 1.27 3.42 2.54 5.186.265.37.55.741.85 1.113a24.69 24.69 0 0 0-.85 1.112c-1.269 1.765-2.149 3.513-2.54 5.186-.39 1.673-.275 3.306.512 4.67.788 1.363 2.145 2.279 3.789 2.777 1.644.499 3.597.61 5.76.394.454-.045.917-.106 1.389-.18.167.436.347.868.538 1.294.895 1.982 1.968 3.617 3.222 4.792 1.254 1.174 2.725 1.892 4.3 1.892 1.575 0 3.046-.718 4.3-1.892 1.253-1.175 2.326-2.81 3.22-4.792.193-.426.372-.858.54-1.294.47.074.933.135 1.386.18 2.164.216 4.118.105 5.761-.394 1.645-.498 3.001-1.414 3.789-2.778.787-1.364.901-2.996.511-4.67-.39-1.672-1.27-3.42-2.54-5.185a24.94 24.94 0 0 0-.849-1.112c.294-.363.578-.734.85-1.113 1.27-1.766 2.15-3.513 2.54-5.186.39-1.673.276-3.306-.511-4.67-.788-1.364-2.145-2.28-3.788-2.778-1.233-.373-2.64-.53-4.18-.493a20.9 20.9 0 0 0-1.582.1c-.453.045-.917.106-1.389.18a24.877 24.877 0 0 0-.537-1.292c-.895-1.982-1.968-3.618-3.222-4.792-1.254-1.175-2.725-1.892-4.3-1.892Zm0 1.751c1.05 0 2.08.462 3.102 1.419 1.02.957 1.996 2.405 2.822 4.234.134.299.262.6.383.904-2.008.447-4.134 1.132-6.308 2.047-2.173-.915-4.3-1.6-6.307-2.046.124-.31.252-.613.383-.905.826-1.83 1.802-3.278 2.823-4.235 1.021-.956 2.051-1.418 3.102-1.418Zm-11.587 7.693a18.711 18.711 0 0 1 1.963.094c.32.032.646.072.978.12-.618 1.963-1.088 4.146-1.383 6.486-1.879 1.425-3.536 2.925-4.926 4.44-.204-.257-.401-.519-.593-.785-1.172-1.63-1.938-3.199-2.256-4.562-.318-1.362-.203-2.485.323-3.395.525-.91 1.44-1.57 2.779-1.977.879-.267 1.93-.41 3.115-.42Zm23.172 0c1.184.011 2.236.155 3.115.421 1.34.406 2.254 1.067 2.78 1.977.525.91.64 2.033.322 3.395-.318 1.363-1.084 2.932-2.256 4.562-.191.266-.39.528-.593.786-1.39-1.516-3.046-3.015-4.925-4.44-.294-2.34-.765-4.524-1.382-6.486.33-.049.657-.09.976-.121a18.78 18.78 0 0 1 1.963-.094Zm-4.68.529a34.027 34.027 0 0 1 1.14 4.753 47.596 47.596 0 0 0-5.826-3.364c1.624-.605 3.2-1.069 4.686-1.389Zm-13.81 0c1.485.32 3.06.785 4.684 1.39a47.666 47.666 0 0 0-5.824 3.362 34 34 0 0 1 1.14-4.752Zm6.904 2.293a44.814 44.814 0 0 1 4.315 2.193c1.444.833 2.8 1.721 4.058 2.642.169 1.55.26 3.168.26 4.835 0 1.665-.091 3.283-.26 4.832a44.898 44.898 0 0 1-4.057 2.641 44.844 44.844 0 0 1-4.316 2.193 44.823 44.823 0 0 1-4.316-2.193 44.825 44.825 0 0 1-4.056-2.64 44.827 44.827 0 0 1-.259-4.834c0-1.666.09-3.285.259-4.835a44.852 44.852 0 0 1 4.057-2.641 44.812 44.812 0 0 1 4.315-2.192Zm.119 2.636-5.016 3.096 5.016 3.095 5.015-3.095-5.015-3.096Zm-10.384 3.67a47.736 47.736 0 0 0 0 6.726 33.97 33.97 0 0 1-3.546-3.364 34.01 34.01 0 0 1 3.546-3.363Zm20.532 0a34.019 34.019 0 0 1 3.545 3.363 33.997 33.997 0 0 1-3.545 3.362 47.72 47.72 0 0 0 0-6.725Zm-16.294.787v6.112l5.268 3.251V24.71l-5.268-3.251Zm12.287.003-5.267 3.25v6.11l5.267-3.25v-6.11ZM9.137 25.385c1.39 1.516 3.047 3.015 4.926 4.44.294 2.34.765 4.523 1.382 6.485-.33.048-.657.088-.976.12-1.997.2-3.739.08-5.078-.327-1.34-.406-2.254-1.067-2.78-1.977-.524-.91-.64-2.032-.322-3.395s1.085-2.932 2.256-4.562c.191-.266.389-.527.592-.784Zm29.908 0c.207.262.405.524.592.784 1.171 1.63 1.938 3.199 2.256 4.562.318 1.362.203 2.485-.323 3.395-.525.91-1.44 1.571-2.779 1.977-1.339.406-3.08.527-5.078.327-.326-.033-.65-.073-.975-.12.618-1.963 1.088-4.147 1.382-6.487C36 28.4 37.655 26.9 39.045 25.385Zm-6.908 5.858a34.013 34.013 0 0 1-1.14 4.753 34.012 34.012 0 0 1-4.685-1.39 47.83 47.83 0 0 0 5.825-3.363Zm-16.09 0a47.658 47.658 0 0 0 5.823 3.363 33.985 33.985 0 0 1-4.684 1.39 33.99 33.99 0 0 1-1.14-4.752Zm8.096.08.064.04.064-.04h-.127Zm-.052 4.291c2.174.915 4.3 1.6 6.309 2.046-.121.305-.25.607-.384.907-.826 1.829-1.801 3.277-2.823 4.234-1.02.957-2.05 1.418-3.101 1.418-1.05 0-2.08-.461-3.102-1.418-1.021-.957-1.997-2.405-2.823-4.234-.134-.3-.262-.602-.384-.907 2.008-.446 4.135-1.131 6.308-2.046Z"/>
    </symbol>
    <symbol id="icon-materials" viewBox="0 0 42 32">
        <path fill="#2B7FFF" d="M13.108 10.883H-.184c-.409 0-.739.316-.739.708v4.251c0 .392.33.709.739.709h.738v16.295c0 .392.33.709.739.709H11.63c.408 0 .739-.317.739-.709V16.551h.738c.408 0 .738-.317.738-.709v-4.25c0-.393-.33-.71-.738-.71ZM4.985 24.344v-1.417h4.43V21.51h-4.43v-1.417h5.907v9.21H4.986v-3.542h1.477v-1.417H4.985Zm5.907-5.668H4.247c-.408 0-.738.317-.738.709v10.627c0 .392.33.709.738.709h6.646v1.417H2.031V16.55h8.861v2.125Zm1.478-3.542H.553V12.3H12.37v2.834ZM22.893 11.015v-5.18c0-.403-.33-.729-.739-.729h-.738V1.46h1.477V0H14.77v1.459h5.169v3.647H19.2a.733.733 0 0 0-.738.73v5.18c-1.683.339-2.954 1.811-2.954 3.573V32.825c0 .404.33.73.739.73h8.861a.733.733 0 0 0 .738-.73V14.59c0-1.76-1.27-3.234-2.953-3.574Zm-2.954-4.45h1.477v4.377h-1.477V6.565Zm-.739 5.836h2.954c1.222 0 2.215.982 2.215 2.188v.73h-7.384v-.73c0-1.207.994-2.188 2.215-2.188Zm5.17 16.777h-7.385v-1.459h2.954V26.26h-2.954v-9.483h7.384v12.401Zm-7.385 2.918v-1.46h7.384v1.46h-7.384ZM41.77 9.976H29.308a.703.703 0 0 0-.692.714v22.15c0 .395.31.715.692.715H41.77c.382 0 .692-.32.692-.715V10.69a.703.703 0 0 0-.692-.714Zm-.693 22.15H30V11.405h11.077v20.72Z"/><path fill="#2B7FFF" d="M10.154 24.486H8.308v.907h1.846v-.907ZM23.077 26.3h-1.846v1.813h1.846V26.3ZM20.77 24.486c1.781 0 3.23-1.424 3.23-3.174s-1.449-3.174-3.23-3.174c-1.782 0-3.231 1.423-3.231 3.174 0 1.75 1.449 3.174 3.23 3.174Zm0-4.761c.89 0 1.615.711 1.615 1.587 0 .875-.725 1.587-1.616 1.587-.89 0-1.615-.712-1.615-1.587 0-.876.724-1.587 1.615-1.587ZM33.808 17.23h3.461c1.337 0 2.424-1.016 2.424-2.267 0-1.25-1.087-2.267-2.424-2.267h-3.461c-1.336 0-2.423 1.017-2.423 2.268 0 1.25 1.087 2.267 2.423 2.267Zm4.5-2.267c0 .536-.466.972-1.039.972h-1.038v-1.943h1.038c.573 0 1.039.436 1.039.971Zm-4.5-.971h1.038v1.943h-1.038c-.573 0-1.039-.436-1.039-.972 0-.535.466-.971 1.039-.971ZM33.808 24.486h3.461c1.337 0 2.424-1.22 2.424-2.72 0-1.501-1.087-2.722-2.424-2.722h-3.461c-1.336 0-2.423 1.22-2.423 2.721 0 1.5 1.087 2.72 2.423 2.72Zm4.5-2.72c0 .642-.466 1.165-1.039 1.165h-1.038V20.6h1.038c.573 0 1.039.523 1.039 1.166Zm-4.5-1.167h1.038v2.332h-1.038c-.573 0-1.039-.523-1.039-1.166 0-.643.466-1.166 1.039-1.166ZM33.808 30.834h3.461c1.337 0 2.424-1.22 2.424-2.72 0-1.5-1.087-2.721-2.424-2.721h-3.461c-1.336 0-2.423 1.22-2.423 2.72 0 1.5 1.087 2.721 2.423 2.721Zm4.5-2.72c0 .642-.466 1.165-1.039 1.165h-1.038v-2.331h1.038c.573 0 1.039.523 1.039 1.165Zm-4.5-1.166h1.038v2.331h-1.038c-.573 0-1.039-.523-1.039-1.166 0-.642.466-1.165 1.039-1.165Z"/>
    </symbol>
    <symbol id="icon-crown" viewBox="0 0 48 48">
        <path fill="#2B7FFF" d="M44.531 15.49a2.532 2.532 0 0 0-1.325-.638 2.428 2.428 0 0 0-1.431.225l-9.469 4.62a.332.332 0 0 1-.4-.044.388.388 0 0 1-.087-.121L26.287 8.6a2.765 2.765 0 0 0-.957-1.092A2.43 2.43 0 0 0 24 7.108a2.43 2.43 0 0 0-1.33.401c-.403.263-.733.64-.958 1.092l-5.53 10.93a.388.388 0 0 1-.089.122.348.348 0 0 1-.124.075c-.045.015-.093.02-.14.015a.332.332 0 0 1-.135-.046l-9.47-4.62a2.413 2.413 0 0 0-1.429-.233 2.513 2.513 0 0 0-1.325.635 2.91 2.91 0 0 0-.818 1.31 3.164 3.164 0 0 0-.065 1.588L7.37 40.714c.08.377.23.733.44 1.045.21.312.474.574.778.77.401.27.862.412 1.332.412.24-.002.48-.037.712-.103a45.837 45.837 0 0 1 26.719-.02c.34.108.698.139 1.05.09.353-.047.693-.173 1-.37a2.73 2.73 0 0 0 .785-.773c.212-.314.364-.671.446-1.051l4.763-22.337a3.118 3.118 0 0 0-.052-1.581 2.87 2.87 0 0 0-.81-1.307ZM43.22 17.8l-4.782 22.336a.477.477 0 0 1-.168.268.43.43 0 0 1-.3.042 47.873 47.873 0 0 0-27.938 0 .34.34 0 0 1-.295-.043.39.39 0 0 1-.112-.114.434.434 0 0 1-.062-.153L4.782 17.8a.475.475 0 0 1 .078-.353.402.402 0 0 1 .132-.117.365.365 0 0 1 .164-.045l.15.041 9.488 4.64a2.388 2.388 0 0 0 1.898.105c.622-.23 1.143-.709 1.458-1.342L23.68 9.797a.38.38 0 0 1 .131-.158.333.333 0 0 1 .375 0 .381.381 0 0 1 .132.158l5.53 10.931c.316.633.837 1.112 1.459 1.342.622.23 1.3.192 1.898-.104l9.488-4.64a.344.344 0 0 1 .393.06.415.415 0 0 1 .12.187.452.452 0 0 1 .012.226ZM31.125 33.473a1.304 1.304 0 0 1-.371.791c-.207.205-.476.32-.754.323h-.113a53.518 53.518 0 0 0-11.775 0 1.055 1.055 0 0 1-.823-.265 1.275 1.275 0 0 1-.414-.828 1.346 1.346 0 0 1 .254-.907 1.12 1.12 0 0 1 .758-.454 52.683 52.683 0 0 1 12.225 0c.294.036.563.196.752.446.188.25.282.57.26.894Z"/>
    </symbol>
    <symbol id="icon-arrow" viewBox="0 0 36 32">
      <path d="M1.062 17.414a2 2 0 0 1 0-2.828L13.79 1.858a2 2 0 1 1 2.828 2.828L5.304 16l11.314 11.314a2 2 0 1 1-2.828 2.828L1.062 17.414zM36 18H2.476v-4H36v4z"/>
    </symbol>
    <symbol id="icon-close" viewBox="0 0 24 24">
      <path stroke-linejoin="miter" stroke-linecap="round" stroke-miterlimit="4" stroke-width="2" d="M9 6l6 6 6-6M9 18l6-6 6 6"></path>
    </symbol>
</svg>